HIERARCHY
ROOT pelvis
{
  OFFSET 0 100 0
  CHANNELS 6 Xposition Yposition Zposition Zrotation Xrotation Yrotation
  JOINT pelvis_right_femur
  {
    OFFSET -10.78128 -3.44521 -0.5502486
    CHANNELS 3 Zrotation Xrotation Yrotation
    JOINT right_femur_tibia
    {
      OFFSET -0.8047443 -44.0398 -0.1307829
      CHANNELS 3 Zrotation Xrotation Yrotation
      JOINT right_tibia_foot
      {
        OFFSET 3.006224 -47.83518 -5
        CHANNELS 3 Zrotation Xrotation Yrotation
        End Site
        {
          OFFSET 0 -5 15
        }
      }
    }
  }
  JOINT pelvis_left_femur
  {
    OFFSET 10.78128 -3.44521 -0.5502486
    CHANNELS 3 Zrotation Xrotation Yrotation
    JOINT left_femur_tibia
    {
      OFFSET 0.8047443 -44.0398 -0.1307829
      CHANNELS 3 Zrotation Xrotation Yrotation
      JOINT left_tibia_foot
      {
        OFFSET -4.370144 -48.10324 -4.275266
        CHANNELS 3 Zrotation Xrotation Yrotation
        End Site
        {
          OFFSET 0 -5 15
        }
      }
    }
  }
  JOINT pelvis_spine1
  {
    OFFSET 0 6.468898 -3.129235
    CHANNELS 3 Zrotation Xrotation Yrotation
    JOINT spine1
    {
      OFFSET 0 23.15396 4.99043
      CHANNELS 3 Zrotation Xrotation Yrotation
      JOINT spine2
      {
        OFFSET 0 20.79997 -5.064912
        CHANNELS 3 Zrotation Xrotation Yrotation
        JOINT neck
        {
          OFFSET 0 14.38658 9.616178
          CHANNELS 3 Zrotation Xrotation Yrotation
          End Site
          {
            OFFSET 0 20 0
          }
        }
      }
      JOINT right_manubrium
      {
        OFFSET -5.722621 16.35077 3.967754
        CHANNELS 3 Zrotation Xrotation Yrotation
        JOINT right_clavicle
        {
          OFFSET -13.16364 1.694482 -4.693211
          CHANNELS 3 Zrotation Xrotation Yrotation
          JOINT right_humerus
          {
            OFFSET -28.5034 -0.3100689 -2.792744
            CHANNELS 3 Zrotation Xrotation Yrotation
            JOINT right_radius
            {
              OFFSET -25.15693 0.02248979 -1.271978
              CHANNELS 3 Zrotation Xrotation Yrotation
              End Site
              {
                OFFSET -15 0 0
              }
            }
          }
        }
      }
      JOINT left_manubrium
      {
        OFFSET 5.722621 16.35077 3.967754
        CHANNELS 3 Zrotation Xrotation Yrotation
        JOINT left_clavicle
        {
          OFFSET 13.16364 1.694482 -4.693211
          CHANNELS 3 Zrotation Xrotation Yrotation
          JOINT left_humerus
          {
            OFFSET 29.39168 -1.063119 -2.237045
            CHANNELS 3 Zrotation Xrotation Yrotation
            JOINT left_radius
            {
              OFFSET 24.59957 -0.9528479 0.9047498
              CHANNELS 3 Zrotation Xrotation Yrotation
              End Site
              {
                OFFSET 15 -0 -0
              }
            }
          }
        }
      }
    }
  }
}
MOTION
Frames: 13
Frame Time: 0.0416666666667
0 103.5113 0 0.02285279 1.696747 0.2534838 6.026317 -23.2341 10.56044 -0 37.00479 -0 -5.268167 -16.24538 -3.070612 -7.057239 11.27611 -22.73902 -0 5.605578 -0 12.08561 -17.08553 27.97405 -3.609749 -3.121684 4.57542 3.155258 8.593896 -7.695179 1.824881 21.41133 6.614396 2.473928 -25.80981 10.6021 6.397687 -19.17484 10.98658 84.84784 37.39193 -17.76732 -0 0 16.12946 -4.328897 7.999313 3.271212 6.540589 -18.88373 0.6648233 -92.50516 23.55276 19.88562 0 0 -15.16138 13.82707 14.76466 -1.735499
0.2892602 104.2938 2.183562 -0.2124984 2.027707 0.5730737 6.477681 -24.38689 10.50188 -0 36.16 -0 -5.442971 -15.28545 -3.035496 -6.882656 11.35875 -22.3777 -0 6.474952 -0 11.60009 -17.56597 27.43557 -3.497694 -2.893578 4.416018 3.278112 8.485837 -7.752829 1.845201 21.24241 6.667287 2.549413 -26.08407 10.64043 6.388652 -18.95936 10.98232 84.82485 37.34801 -17.80283 -0 0 15.96275 -4.340234 8.069482 3.295889 6.623731 -18.88942 0.7870263 -92.52424 23.36875 19.79763 0 0 -14.99092 13.78431 14.61462 -1.77503
0.5975393 104.8164 4.898207 -0.4172922 2.507449 0.9011569 6.559927 -27.14325 8.462086 -0 29.45387 -0 -5.92206 -11.10069 -2.079024 -6.540772 11.82455 -20.33442 -0 7.760133 -0 10.31313 -18.87757 24.90256 -3.144958 -2.777241 4.289611 3.399109 9.171105 -8.166319 1.457587 20.73646 7.131836 3.053875 -26.65825 10.20698 5.820986 -19.08536 11.46842 86.21252 36.03052 -19.7257 -0 0 14.45469 -6.676403 8.676372 4.464433 6.884213 -20.57217 -0.2790615 -91.43308 22.32812 19.03708 0 0 -18.52066 13.43546 14.41337 -1.454392
0.9043813 105.2256 8.03382 -0.7154903 2.934422 1.272534 6.891152 -29.19852 7.426089 -0 25.54698 -0 -6.312839 -8.415827 -1.638104 -6.21837 12.13176 -18.9235 -0 9.389386 -0 9.248317 -19.58148 23.1618 -2.832114 -2.590282 4.107466 3.524787 9.450995 -8.429111 1.292221 20.36664 7.364821 3.313642 -27.054 10.01088 5.474179 -18.94209 11.67467 86.94486 35.29797 -20.71367 -0 0 13.49028 -7.902997 9.052136 5.062118 7.057191 -21.43664 -0.7138984 -90.75639 21.5083 18.40995 0 0 -20.19873 13.4053 14.08224 -1.510382
1.198158 105.572 11.69004 -1.136422 3.384653 1.689551 7.413079 -31.29692 6.472748 -0 21.64845 -0 -6.814613 -5.581391 -1.244885 -5.805211 12.42472 -17.28059 -0 11.93945 -0 8.01937 -19.93731 21.22277 -2.376101 -2.407957 3.883184 3.648969 9.758681 -8.724621 1.14245 19.9527 7.576366 3.543691 -27.44449 9.821697 5.052148 -18.7083 11.86082 87.77636 34.49795 -21.73721 -0 0 12.3815 -9.169585 9.469888 5.636822 7.218826 -22.3317 -1.111473 -89.97971 20.39138 17.63921 0 0 -21.82423 13.63291 13.58621 -1.856406
1.464552 105.9295 15.93427 -1.66985 3.747033 2.135174 8.113877 -33.02213 5.680642 -0 18.20362 -0 -7.456873 -2.91551 -0.9654261 -5.300434 12.67799 -15.54466 -0 15.61134 -0 6.511258 -19.74344 19.12605 -1.756037 -2.244299 3.601475 3.745238 10.05289 -9.020625 1.010705 19.5714 7.748009 3.723444 -27.74639 9.627231 4.562412 -18.36807 12.00495 88.68859 33.65026 -22.74437 -0 0 11.1705 -10.38193 9.876328 6.136937 7.289305 -23.14162 -1.496102 -89.23702 19.26548 16.86361 0 0 -23.21075 13.84034 13.03617 -2.163495
1.688036 106.3963 20.82625 -2.281587 3.89324 2.564139 8.912902 -33.91731 4.975357 -0 15.3451 -0 -8.292992 -0.6791574 -0.8218087 -4.701365 12.82892 -13.74812 -0 20.75887 -0 4.581611 -18.73699 16.7881 -0.9340198 -2.127028 3.267827 3.773337 10.33417 -9.294815 0.8739437 19.30162 7.870595 3.838381 -27.85731 9.3778 3.969321 -17.91914 12.10546 89.75309 32.70206 -23.78225 -0 0 9.809615 -11.57002 10.24731 6.568571 7.175276 -23.83923 -1.972771 -88.54994 18.38272 16.14708 0 0 -24.40445 13.74957 12.53177 -2.09278
1.857022 107.1116 26.34987 -2.878018 3.677298 2.901756 9.655114 -33.2678 4.376485 -0 13.64568 -0 -9.318142 0.4399936 -0.8931575 -4.054794 12.66028 -12.13178 -0 27.57407 -0 2.227261 -16.62812 14.33489 0.05208825 -2.061933 2.932001 3.688139 10.51645 -9.465015 0.7357977 19.2765 7.894423 3.837364 -27.64456 9.051991 3.319341 -17.3589 12.12695 90.88115 31.76173 -24.71336 -0 0 8.42128 -12.52184 10.51208 6.840275 6.756835 -24.22647 -2.554949 -88.04056 18.18255 15.66211 0 0 -25.15322 13.03215 12.21054 -1.244288
1.974098 108.2338 32.35393 -3.277892 3.000857 3.062803 10.06716 -30.40637 3.888182 -0 13.59158 -0 -10.45579 -0.3062628 -1.225084 -3.481105 11.7296 -11.00974 -0 35.90649 -0 -0.2920669 -13.36261 12.07788 1.02562 -2.011964 2.733216 3.461836 10.4959 -9.408025 0.6195746 19.62723 7.747217 3.66819 -27.02181 8.651079 2.741522 -16.73612 12.0429 91.84761 31.0685 -25.27921 -0 0 7.259282 -12.9274 10.60905 6.84866 5.965705 -24.0743 -3.164623 -87.85898 19.03506 15.62882 0 0 -25.13396 11.51209 12.15801 0.5951651
2.0606 109.8652 38.54194 -3.245555 1.889205 3.006341 9.859872 -25.27708 3.477001 -0 14.93137 -0 -11.56252 -2.993414 -1.729472 -3.160935 9.434472 -10.52204 -0 45.10222 -0 -2.435616 -9.497467 10.4294 1.637327 -1.872069 2.884788 3.126657 10.26005 -9.024336 0.57052 20.38078 7.36912 3.336508 -26.05249 8.197266 2.411847 -16.18456 11.8855 92.33758 30.88555 -25.18764 -0 0 6.606562 -12.64832 10.55955 6.608262 4.896268 -23.33613 -3.632314 -88.10845 20.84087 16.19686 0 0 -24.204 9.415938 12.32074 3.128782
2.137637 111.95 44.57899 -2.639198 0.4657172 2.783506 8.966805 -18.77558 3.063285 -0 16.2994 -0 -12.47011 -6.462777 -2.188869 -3.184138 5.390091 -10.35945 -0 54.02642 -0 -3.677238 -6.185304 9.694531 1.530779 -1.519215 3.518299 2.775042 9.977746 -8.344074 0.6370241 21.39335 6.761709 2.937268 -24.92668 7.703973 2.385508 -15.88456 11.75367 92.13131 31.21435 -24.27568 -0 0 6.566228 -12.07027 10.51352 6.364551 3.827554 -22.33298 -3.823535 -88.68523 22.85244 17.22067 0 0 -22.64682 7.347173 12.55587 5.559287
2.202761 114.2457 50.24052 -1.608748 -1.116159 2.507605 7.685766 -12.11815 2.601029 -0 16.23169 -0 -13.04623 -9.340096 -2.479172 -3.322458 -0.1988214 -9.985532 -0 60.86815 -0 -3.917366 -4.370097 9.982034 0.6879828 -0.9254989 4.490932 2.480629 9.826149 -7.525326 0.8319546 22.43247 5.999213 2.562878 -23.78153 7.187858 2.485576 -15.97132 11.70209 91.18306 31.72402 -22.47509 -0 0 7.145694 -11.87524 10.6333 6.457534 3.056481 -21.46392 -3.725104 -89.32969 24.26624 18.33039 0 0 -20.83259 5.77576 12.7673 7.235312
2.254127 116.4063 55.46067 -0.5808777 -2.599313 2.260032 6.47353 -5.917195 2.173207 -0 14.54643 -0 -13.2507 -11.58282 -2.664716 -3.10848 -6.663064 -9.160693 -0 63.14911 -0 -3.472877 -4.011259 11.18802 -0.4642796 -0.2056368 5.453587 2.247872 9.750795 -6.726803 1.092064 23.28839 5.210033 2.205959 -22.67325 6.716644 2.483388 -16.52209 11.6631 89.49662 32.12726 -19.68027 -0 0 8.545468 -12.35833 10.93006 7.083561 2.703729 -20.75451 -3.362449 -89.96554 24.87032 19.42201 0 0 -18.7229 4.724671 12.89501 8.127338
